PathFileType	4	(X/Y/Z)	/Users/itak/Documents/Research/Walk-IL/dataset/trc/00082_00006.trc
DataRate	CameraRate	NumFrames	NumMarkers	Units	OrigDataRate	OrigDataStartFrame	OrigNumFrames
100.000000	100.000000	4	53	mm	100.000000	312	500
Frame#	Time	RPSI			LPSI			L3			STRN			T10			C7			CLAV			RBAK			LBAK			LSHO			LUPA			LAEL			LAOL			LWTS			LWPS			LFRA			LIFD			LHPS			LHTS			RSHO			RUPA			RAEL			RAOL			RWTS			RWPS			RFRA			RIFD			RHTS			RHPS			RBHD			LFHD			RFHD			LBHD			LHIP			RHIP			RASI			LASI			LKNE			LTHI			LANK			LTIP			LTOE			LMT1			LMT5			LHEE			RKNE			RTHI			RANK			RTIP			RTOE			RMT1			RMT5			RHEE			
		X1	Y1	Z1	X2	Y2	Z2	X3	Y3	Z3	X4	Y4	Z4	X5	Y5	Z5	X6	Y6	Z6	X7	Y7	Z7	X8	Y8	Z8	X9	Y9	Z9	X10	Y10	Z10	X11	Y11	Z11	X12	Y12	Z12	X13	Y13	Z13	X14	Y14	Z14	X15	Y15	Z15	X16	Y16	Z16	X17	Y17	Z17	X18	Y18	Z18	X19	Y19	Z19	X20	Y20	Z20	X21	Y21	Z21	X22	Y22	Z22	X23	Y23	Z23	X24	Y24	Z24	X25	Y25	Z25	X26	Y26	Z26	X27	Y27	Z27	X28	Y28	Z28	X29	Y29	Z29	X30	Y30	Z30	X31	Y31	Z31	X32	Y32	Z32	X33	Y33	Z33	X34	Y34	Z34	X35	Y35	Z35	X36	Y36	Z36	X37	Y37	Z37	X38	Y38	Z38	X39	Y39	Z39	X40	Y40	Z40	X41	Y41	Z41	X42	Y42	Z42	X43	Y43	Z43	X44	Y44	Z44	X45	Y45	Z45	X46	Y46	Z46	X47	Y47	Z47	X48	Y48	Z48	X49	Y49	Z49	X50	Y50	Z50	X51	Y51	Z51	X52	Y52	Z52	X53	Y53	Z53	

313	3.12	54.03853225708008	1002.861083984375	213.7073669433594	-68.02883911132812	982.6446533203125	89.10065460205078	-7.77177906036377	1051.676879882812	147.215576171875	183.071044921875	1246.561889648438	-25.6467227935791	-18.76721572875977	1186.607299804688	153.9171752929688	29.6202220916748	1452.0546875	109.6471939086914	161.0511779785156	1361.901489257812	-8.85216236114502	30.37965202331543	1314.478149414062	208.6493377685547	-56.37101364135742	1416.077392578125	51.80154418945312	-29.81998634338379	1418.664916992188	-70.91816711425781	-106.0727615356445	1298.143310546875	-110.5456695556641	-135.30615234375	1088.477416992188	-138.7383880615234	-112.7244873046875	1069.846923828125	-34.46058654785156	-63.03598403930664	836.7933959960938	-169.2294311523438	-147.3011932373047	837.6881713867188	-163.6828918457031	-143.2371826171875	979.836669921875	-159.4767456054688	-67.14919281005859	651.0260620117188	-162.2485504150391	-134.7853546142578	754.7136840820312	-185.0018310546875	-62.83720397949219	753.1181030273438	-189.1592712402344	191.6639862060547	1414.807983398438	197.6189727783203	224.6979675292969	1346.13623046875	252.5569305419922	243.1733856201172	1082.347045898438	302.1232299804688	194.2914886474609	1057.711547851562	218.1153259277344	358.1074523925781	871.2706298828125	134.5974578857422	349.1313171386719	836.8015747070312	214.1615142822266	270.8871459960938	1001.601318359375	290.53173828125	370.5321044921875	695.1548461914062	79.56318664550781	391.574951171875	781.9154052734375	96.04208374023438	392.001708984375	762.0995483398438	171.3709564208984	33.30458450317383	1634.388916015625	64.31063842773438	231.6038055419922	1656.677612304688	-15.79128456115723	126.4691696166992	1662.769165039062	-84.95378875732422	152.4188385009766	1620.220825195312	131.6570587158203	-43.76626205444336	921.8164672851562	-48.30150604248047	153.8584747314453	934.3551025390625	233.2054290771484	237.2932891845703	944.739501953125	138.1721496582031	76.37068176269531	936.2677001953125	-75.40132141113281	165.7767486572266	505.8024291992188	-137.8502502441406	75.58896636962891	622.5927734375	-121.8810501098633	212.1559600830078	40.09246063232422	-147.6940765380859	176.9134674072266	257.2283935546875	-149.3034362792969	340.3924255371094	90.29380035400391	-294.4739379882812	351.8912658691406	74.38441467285156	-227.1683197021484	245.4227142333984	53.39984130859375	-248.9068756103516	240.6430511474609	34.10837173461914	-60.58593368530273	138.3911590576172	492.2279663085938	218.4040374755859	201.3787078857422	756.4722290039062	200.85302734375	-105.1250381469727	94.49569702148438	398.6594543457031	85.01065063476562	384.5514221191406	269.3267517089844	41.19215393066406	35.69454193115234	262.2047119140625	-25.33573913574219	48.97245407104492	256.1394348144531	-0.4040274918079376	49.26223373413086	351.9751586914062	-170.1324768066406	118.8951721191406	372.7317810058594	
314	3.13	63.1003532409668	1003.257568359375	205.8301086425781	-60.26725006103516	983.3428344726562	82.5302734375	0.537700891494751	1051.738159179688	139.9467315673828	188.7016296386719	1247.612182617188	-34.64448547363281	-11.2815408706665	1186.574951171875	146.9073028564453	35.38847351074219	1452.291137695312	102.247200012207	166.2994537353516	1362.848266601562	-17.47043418884277	37.56405639648438	1314.561889648438	201.0925903320312	-50.84518432617188	1415.949584960938	45.06778717041016	-25.52372360229492	1418.758178710938	-77.82823181152344	-101.4473571777344	1297.995361328125	-117.0327377319336	-130.0229339599609	1088.18505859375	-145.0456695556641	-106.2266693115234	1069.464477539062	-40.96216201782227	-56.99032592773438	836.887451171875	-176.5469055175781	-141.2157592773438	837.3699340820312	-169.9387817382812	-137.6993255615234	979.5169067382812	-165.7334747314453	-60.11137771606445	651.0833740234375	-169.7389831542969	-128.530517578125	754.5003051757812	-191.4957427978516	-56.62475967407227	753.2548828125	-196.5823364257812	198.298583984375	1415.655029296875	188.8873291015625	231.8358612060547	1346.915649414062	243.4510803222656	250.5834808349609	1083.205810546875	292.6592712402344	201.0349731445312	1058.896728515625	208.9451293945312	363.9732666015625	872.3438110351562	123.9014282226562	355.4574890136719	837.6185913085938	203.4244232177734	278.1602478027344	1002.453674316406	280.7814331054688	375.6431579589844	696.4453735351562	67.93328857421875	397.0426940917969	783.120849609375	84.78022003173828	397.8841857910156	762.9424438476562	160.0057830810547	38.28441619873047	1635.047241210938	57.01462173461914	236.2620849609375	1657.739501953125	-23.87795448303223	130.8176422119141	1663.885375976562	-92.56687164306641	157.8026428222656	1620.833251953125	123.8432235717773	-37.04632949829102	922.5003051757812	-55.04550552368164	163.0123596191406	934.4161376953125	224.6533203125	245.4658203125	944.992431640625	128.8279113769531	82.74808502197266	936.991943359375	-83.26841735839844	172.1784820556641	506.0191040039062	-144.6091918945312	82.27481842041016	623.0982666015625	-128.9070434570312	213.7643890380859	40.2162971496582	-149.0702667236328	181.9573059082031	256.8546447753906	-154.1983642578125	344.3850402832031	83.05110168457031	-296.9658203125	354.9366455078125	68.82417297363281	-229.1121520996094	247.850830078125	50.38225555419922	-250.5198364257812	242.0787048339844	35.43206787109375	-61.72634887695312	148.5785980224609	491.9604187011719	209.3689117431641	210.2575836181641	756.3995361328125	191.6339263916016	-101.2190170288086	100.7308044433594	396.7355346679688	94.15111541748047	385.5531311035156	262.0465393066406	40.83086776733398	35.74308395385742	262.3217468261719	-24.09207725524902	49.56242370605469	255.4604339599609	1.579622030258179	50.26446533203125	351.1010131835938	-164.9056854248047	126.9693450927734	370.1893920898438	
315	3.14	72.22567749023438	1003.849670410156	197.8751525878906	-52.51311492919922	984.2698974609375	76.00228881835938	8.918768882751465	1052.031860351562	132.6640777587891	194.2912292480469	1248.858276367188	-43.71484756469727	-3.765539169311523	1186.711669921875	139.916015625	41.16241836547852	1452.678588867188	94.82466125488281	171.5077362060547	1363.978759765625	-26.13683700561523	44.81778717041016	1314.83203125	193.5046844482422	-45.29438018798828	1415.994995117188	38.3321418762207	-21.23627090454102	1419.05615234375	-84.72381591796875	-96.817626953125	1298.064453125	-123.5768585205078	-124.690673828125	1088.103881835938	-151.4342346191406	-99.76580810546875	1069.354858398438	-47.54911804199219	-50.8046989440918	837.2384033203125	-183.951416015625	-135.0104370117188	837.2621459960938	-176.3264312744141	-132.078857421875	979.4174194335938	-172.097900390625	-52.86846160888672	651.3802490234375	-177.3031463623047	-122.0781173706055	754.496337890625	-198.0921783447266	-50.25048065185547	753.6290283203125	-204.10009765625	204.9540557861328	1416.717407226562	180.0948944091797	238.9931488037109	1347.949829101562	234.28955078125	257.8910522460938	1084.312866210938	283.1593627929688	207.7362976074219	1060.299072265625	199.7225189208984	369.6369018554688	873.4505615234375	113.3820190429688	361.5583190917969	838.560791015625	192.8964233398438	285.2807312011719	1003.527587890625	271.0555114746094	380.4585266113281	697.7079467773438	56.70891189575195	402.2255249023438	784.289794921875	73.790283203125	403.4787292480469	763.8361206054688	148.9316101074219	43.23482513427734	1635.890014648438	49.67846298217773	240.8918304443359	1658.941650390625	-31.99275016784668	135.1540985107422	1665.160888671875	-100.2178726196289	163.1363983154297	1621.6123046875	115.9926452636719	-30.51124000549316	923.4141235351562	-61.77280807495117	172.26708984375	934.649169921875	215.9458923339844	253.5540924072266	945.4503173828125	119.1819915771484	88.89168548583984	937.9165649414062	-91.26242065429688	178.5774688720703	506.4194946289062	-151.2600402832031	88.82401275634766	623.6995239257812	-135.8762817382812	215.3572235107422	40.48070907592773	-150.5911407470703	186.9776916503906	256.70361328125	-159.1266632080078	348.8705139160156	76.14122772216797	-298.8026428222656	358.1928405761719	63.69579315185547	-230.3847045898438	250.6844177246094	47.77630615234375	-252.0658874511719	243.1396942138672	36.77445983886719	-62.93635559082031	159.4900054931641	491.7098999023438	199.8292999267578	219.3087158203125	756.4668579101562	182.0578918457031	-96.67490386962891	107.4113311767578	394.3046875	104.0834274291992	386.6387023925781	254.2497406005859	40.47225570678711	35.74067687988281	262.5014343261719	-22.59797477722168	50.15230941772461	254.6443786621094	3.838658809661865	51.33876037597656	350.0746765136719	-158.7618865966797	135.5122833251953	366.995849609375	
316	3.15	81.36085510253906	1004.606262207031	189.8655548095703	-44.80245590209961	985.36376953125	69.52219390869141	17.32069206237793	1052.534912109375	125.4029769897461	199.8223876953125	1250.255737304688	-52.82331848144531	3.76622486114502	1186.990844726562	132.9648590087891	46.95413589477539	1453.186645507812	87.40971374511719	176.6710662841797	1365.252319335938	-34.81975936889648	52.14313888549805	1315.267822265625	185.9263763427734	-39.72480773925781	1416.1923828125	31.63010406494141	-16.93667984008789	1419.554321289062	-91.577880859375	-92.19148254394531	1298.3466796875	-130.1402130126953	-119.3096237182617	1088.234985351562	-157.8737487792969	-93.36377716064453	1069.5029296875	-54.19968795776367	-44.48559951782227	837.8486938476562	-191.42724609375	-128.6902008056641	837.37353515625	-182.8601379394531	-126.376838684082	979.5468139648438	-178.5569305419922	-45.43294143676758	651.9273071289062	-184.9378204345703	-115.4359283447266	754.7112426757812	-204.8103790283203	-43.70248031616211	754.2431640625	-211.6922760009766	211.6431427001953	1417.963623046875	171.2546844482422	246.1925811767578	1349.20751953125	225.0820770263672	265.0955810546875	1085.643310546875	273.6415710449219	214.4142303466797	1061.90625	190.4534149169922	375.12890625	874.5717163085938	103.0559387207031	367.4567565917969	839.6109008789062	182.5933074951172	292.2457275390625	1004.792602539062	261.3750610351562	385.0083618164062	698.9212646484375	45.9413948059082	407.1484069824219	785.3902587890625	63.09760665893555	408.8082580566406	764.7623291015625	138.1787109375	48.16326141357422	1636.873291015625	42.33338165283203	245.4952239990234	1660.239013671875	-40.11444854736328	139.4771118164062	1666.543334960938	-107.8814392089844	168.4205780029297	1622.520874023438	108.1305389404297	-24.20557022094727	924.48828125	-68.46831512451172	181.575439453125	935.0452880859375	207.11474609375	261.5006103515625	946.0960083007812	109.2783203125	94.77153778076172	939.000732421875	-99.36161804199219	185.0255737304688	506.9588928222656	-157.7837677001953	95.28959655761719	624.3621215820312	-142.7496490478516	216.8362579345703	40.83190155029297	-152.1300811767578	191.8952789306641	256.6956481933594	-163.9325714111328	353.4909973144531	69.61091613769531	-300.0592041015625	361.4403686523438	59.01041030883789	-231.1041259765625	253.6538391113281	45.61034774780273	-253.4719390869141	243.8713531494141	38.03345108032227	-64.12646484375	171.1119842529297	491.4561462402344	189.7919769287109	228.4950103759766	756.6674194335938	172.1537780761719	-91.39236450195312	114.547737121582	391.3294067382812	114.8240356445312	387.77392578125	245.9281616210938	40.22560501098633	35.64597702026367	262.6950988769531	-20.78685569763184	50.78032302856445	253.6630706787109	6.413613319396973	52.56959533691406	348.8795776367188	-151.6595306396484	144.4765472412109	363.1192321777344	
